<?xml version="1.0" encoding="utf-8"?>
<!-- Generator: Adobe Illustrator 22.1.0, SVG Export Plug-In . SVG Version: 6.00 Build 0)  -->
<svg version="1.1" id="Layer_1" xmlns="http://www.w3.org/2000/svg" xmlns:xlink="http://www.w3.org/1999/xlink" x="0px" y="0px"
	 viewBox="0 0 527.1 100" style="enable-background:new 0 0 527.1 100;" xml:space="preserve">
<style type="text/css">
	.st0{fill:#FFFFFF;}
</style>
<g>
	<g>
		<path class="st0" d="M114.6,53.7c0-1.8-2-2.7-6.1-2.7c-3.2,0-5.3,0.5-6.5,1.6c-1.2,1-1.8,3.1-1.9,6.1l9.1-1.6
			c2.2-0.4,3.5-0.7,4.1-1C114.2,55.6,114.6,54.8,114.6,53.7z"/>
		<path class="st0" d="M59.1,53.1c-1.2,1.3-1.8,3.6-1.8,7.1c0,4.3,0.6,7.1,1.9,8.3c1.1,1,3.6,1.5,7.5,1.5c2.2,0,4.1-0.1,5.7-0.3
			V51.9l0.1-0.1c-1-0.4-3.1-0.6-6.1-0.6C62.8,51.2,60.3,51.8,59.1,53.1z"/>
		<path class="st0" d="M141,67.6c0,2,2.4,2.9,7.3,2.9c2.5,0,4.6-0.1,6.1-0.4v-7l-10.9,2C141.8,65.4,141,66.3,141,67.6z"/>
		<path class="st0" d="M201.7,46.5V25.6c0,0,0.6-5.9-6-7c-6-1.1-33.9-5.4-89.3-5.5h-1.9c-55.3,0.1-83.2,4.4-89.3,5.5
			c-6.7,1.1-6,7-6,7v20.9v34.7c0,0-0.4,5.9,6,7c6,1.1,33.9,5.4,89.3,5.5h1.9c55.3-0.1,83.2-4.4,89.3-5.5c6.5-1.2,6-7,6-7V46.5z
			 M38,76.5c0,1.4-0.7,2.1-2.1,2.1H30c-1.4,0-2.1-0.7-2.1-2.1V44.9c0-1.4,0.7-2.1,2.1-2.1h3.3c3.1,0,4.6,1.5,4.6,4.6V76.5z
			 M32.9,39.1c-3.8,0-5.7-1.8-5.7-5.5c0-3.8,1.9-5.7,5.7-5.7c3.8,0,5.7,1.9,5.7,5.7C38.7,37.3,36.7,39.1,32.9,39.1z M82.4,73.6
			c0,2.3-1.2,3.6-3.7,4.1C74.2,78.6,70,79,66.2,79c-6.8,0-11.7-1.5-14.7-4.4c-2.9-2.9-4.4-7.7-4.4-14.4c0-12,6.2-18,18.6-18
			c2.8,0,5,0.1,6.6,0.2V30.1c0-1.3,0.7-2,2.1-2h3.4c3,0,4.5,1.5,4.5,4.6V73.6z M104.4,69.7c1,0.3,2.6,0.4,4.9,0.4
			c2.1,0,4.4-0.1,6.7-0.3l4.4-0.3c1.2-0.1,1.9,0.6,2.1,2l0.1,3.1c0.1,2.3-1.1,3.6-3.7,4c-2,0.3-5.6,0.5-10.8,0.5
			c-6.4,0-11-1.5-14-4.6c-2.9-3.1-4.4-7.7-4.4-14c0-6.2,1.4-10.7,4.3-13.6c2.9-2.9,7.5-4.4,13.8-4.4c11.3,0,16.9,3.7,16.9,11.1
			c0,3.3-1,5.8-2.9,7.5c-1.3,1.1-2.7,2-4.1,2.5c-1,0.3-2.7,0.7-5.2,1.2l-11.7,2C101.5,68.2,102.7,69.2,104.4,69.7z M164.4,74
			c0,2.3-1.2,3.7-3.6,4.1c-3.6,0.7-7.9,1-13.1,1c-11.3,0-17-3.8-17-11.4c0-5.2,3.4-8.6,10.3-10.3c0.4-0.1,3.1-0.6,8.1-1.5
			c2.8-0.5,4.5-0.9,5.3-1.2c-0.1-1.5-0.9-2.5-2.4-3c-0.8-0.3-2.2-0.4-4.2-0.4c-3.2,0-6,0.1-8.4,0.4l-3.7,0.4c-0.1,0-0.2,0-0.3,0.1
			c-1.1,0-1.8-0.6-2-1.9c0-0.1-0.1-1.1-0.1-3.1c0-2.4,2-3.9,6-4.4c0.7-0.1,3.6-0.1,8.9-0.1c10.8,0,16.2,4.5,16.2,13.5V74z
			 M183.7,76.6c0,1.3-0.8,2-2.3,2h-5.7c-1.4,0-2.1-0.7-2.1-2V30.9c0-1.4,0.7-2.1,2.1-2.1h3.3c3.1,0,4.7,1.5,4.7,4.6V76.6z"/>
	</g>
	<g>
		<path class="st0" d="M262.1,41v5.9c0,7.3-3.5,11.2-10.6,11.2h-3.4v17.1H241V29.8h10.5C258.6,29.8,262.1,33.8,262.1,41z
			 M248.1,36.3v15.4h3.4c2.3,0,3.5-1,3.5-4.3v-6.8c0-3.2-1.2-4.3-3.5-4.3H248.1z"/>
		<path class="st0" d="M280.4,75.2c-0.4-1.2-0.6-1.9-0.6-5.6v-7.1c0-4.2-1.4-5.8-4.7-5.8h-2.5v18.5h-7.1V29.8h10.8
			c7.4,0,10.6,3.4,10.6,10.4v3.6c0,4.7-1.5,7.7-4.7,9.1v0.1c3.6,1.5,4.7,4.9,4.7,9.6v7c0,2.2,0.1,3.8,0.8,5.5H280.4z M272.6,36.3
			v13.9h2.8c2.7,0,4.3-1.2,4.3-4.8V41c0-3.2-1.1-4.7-3.6-4.7H272.6z"/>
		<path class="st0" d="M298.7,48.9h9.8v6.5h-9.8v13.3H311v6.5h-19.5V29.8H311v6.5h-12.3V48.9z"/>
		<path class="st0" d="M330.4,62h0.1l4.8-32.2h9.9v45.4h-6.7V42.6h-0.1l-4.8,32.6h-6.7l-5.2-32.1h-0.1v32.1h-6.2V29.8h9.9L330.4,62z
			"/>
		<path class="st0" d="M350.5,29.8h7.1v45.4h-7.1V29.8z"/>
		<path class="st0" d="M369.9,48.9h9.8v6.5h-9.8v13.3h12.3v6.5h-19.5V29.8h19.5v6.5h-12.3V48.9z"/>
		<path class="st0" d="M401.6,75.2c-0.4-1.2-0.6-1.9-0.6-5.6v-7.1c0-4.2-1.4-5.8-4.7-5.8h-2.5v18.5h-7.1V29.8h10.8
			c7.4,0,10.6,3.4,10.6,10.4v3.6c0,4.7-1.5,7.7-4.7,9.1v0.1c3.6,1.5,4.7,4.9,4.7,9.6v7c0,2.2,0.1,3.8,0.8,5.5H401.6z M393.8,36.3
			v13.9h2.8c2.7,0,4.3-1.2,4.3-4.8V41c0-3.2-1.1-4.7-3.6-4.7H393.8z"/>
		<path class="st0" d="M443.5,58.3v6c0,7.3-3.6,11.4-10.6,11.4c-7,0-10.6-4.2-10.6-11.4V40.7c0-7.3,3.6-11.4,10.6-11.4
			c7,0,10.6,4.2,10.6,11.4v4.4h-6.7v-4.9c0-3.2-1.4-4.5-3.7-4.5c-2.3,0-3.7,1.2-3.7,4.5v24.5c0,3.2,1.4,4.4,3.7,4.4
			c2.3,0,3.7-1.2,3.7-4.4v-6.5H443.5z"/>
		<path class="st0" d="M447.8,29.8h7.1v38.9h11.7v6.5h-18.9V29.8z"/>
		<path class="st0" d="M476.6,29.8v35c0,3.2,1.4,4.4,3.7,4.4c2.3,0,3.7-1.2,3.7-4.4v-35h6.7v34.6c0,7.3-3.6,11.4-10.6,11.4
			c-7,0-10.6-4.2-10.6-11.4V29.8H476.6z"/>
		<path class="st0" d="M517,40.2v1.6c0,4.7-1.4,7.6-4.6,9.1v0.1c3.8,1.5,5.3,4.9,5.3,9.7v3.7c0,7-3.7,10.8-10.8,10.8h-11.2V29.8
			h10.8C513.8,29.8,517,33.2,517,40.2z M502.8,36.3v12h2.8c2.7,0,4.3-1.2,4.3-4.8V41c0-3.2-1.1-4.7-3.6-4.7H502.8z M502.8,54.8v13.9
			h4.1c2.4,0,3.7-1.1,3.7-4.5v-4c0-4.2-1.4-5.5-4.6-5.5H502.8z"/>
	</g>
	<g>
		<polyline class="st0" points="219.9,28.3 219.9,78.6 222.8,78.6 222.8,28.3 		"/>
	</g>
</g>
</svg>
