<?xml version="1.0" encoding="utf-8"?>
<!-- Generator: Adobe Illustrator 23.0.6, SVG Export Plug-In . SVG Version: 6.00 Build 0)  -->
<svg version="1.1" id="Layer_1" xmlns="http://www.w3.org/2000/svg" xmlns:xlink="http://www.w3.org/1999/xlink" x="0px" y="0px"
	 viewBox="0 0 280.5 152.7" style="enable-background:new 0 0 280.5 152.7;" xml:space="preserve">
<style type="text/css">
	.st0{fill:#FFFFFF;}
	.st1{font-family:'ProximaNova-Semibold';}
	.st2{font-size:28px;}
</style>
<g>
	<path class="st0" d="M148.3,27.5c0-1.2-1.4-1.8-4.1-1.8c-2.2,0-3.6,0.3-4.4,1.1c-0.8,0.7-1.2,2.1-1.3,4.1l6.2-1.1
		c1.5-0.3,2.4-0.5,2.8-0.7C148.1,28.8,148.3,28.2,148.3,27.5z"/>
	<path class="st0" d="M110.8,27.1c-0.8,0.9-1.2,2.4-1.2,4.8c0,2.9,0.4,4.8,1.3,5.6c0.7,0.7,2.4,1,5.1,1c1.5,0,2.8-0.1,3.9-0.2V26.3
		l0.1-0.1c-0.7-0.3-2.1-0.4-4.1-0.4C113.3,25.8,111.6,26.2,110.8,27.1z"/>
	<path class="st0" d="M166.2,36.9c0,1.4,1.6,2,4.9,2c1.7,0,3.1-0.1,4.1-0.3v-4.7l-7.4,1.4C166.8,35.4,166.2,36,166.2,36.9z"/>
	<path class="st0" d="M207.3,22.6V8.5c0,0,0.4-4-4.1-4.7c-4.1-0.7-23-3.7-60.5-3.7h-1.3c-37.4,0.1-56.3,3-60.5,3.7
		C76.5,4.5,77,8.5,77,8.5v14.1v23.5c0,0-0.3,4,4.1,4.7c4.1,0.7,23,3.7,60.5,3.7h1.3c37.4-0.1,56.3-3,60.5-3.7
		c4.4-0.8,4.1-4.7,4.1-4.7V22.6z M96.5,42.9c0,0.9-0.5,1.4-1.4,1.4h-4c-0.9,0-1.4-0.5-1.4-1.4V21.5c0-0.9,0.5-1.4,1.4-1.4h2.2
		c2.1,0,3.1,1,3.1,3.1L96.5,42.9L96.5,42.9z M93,17.6c-2.6,0-3.9-1.2-3.9-3.7c0-2.6,1.3-3.9,3.9-3.9s3.9,1.3,3.9,3.9
		C97,16.4,95.6,17.6,93,17.6z M126.5,41c0,1.6-0.8,2.4-2.5,2.8c-3,0.6-5.9,0.9-8.5,0.9c-4.6,0-7.9-1-10-3c-2-2-3-5.2-3-9.7
		c0-8.1,4.2-12.2,12.6-12.2c1.9,0,3.4,0.1,4.5,0.1v-8.3c0-0.9,0.5-1.4,1.4-1.4h2.3c2,0,3,1,3,3.1L126.5,41L126.5,41z M141.4,38.3
		c0.7,0.2,1.8,0.3,3.3,0.3c1.4,0,3-0.1,4.5-0.2l3-0.2c0.8-0.1,1.3,0.4,1.4,1.4l0.1,2.1c0.1,1.6-0.7,2.4-2.5,2.7
		c-1.4,0.2-3.8,0.3-7.3,0.3c-4.3,0-7.4-1-9.5-3.1c-2-2.1-3-5.2-3-9.5c0-4.2,0.9-7.2,2.9-9.2s5.1-3,9.3-3c7.7,0,11.4,2.5,11.4,7.5
		c0,2.2-0.7,3.9-2,5.1c-0.9,0.7-1.8,1.4-2.8,1.7c-0.7,0.2-1.8,0.5-3.5,0.8l-7.9,1.4C139.5,37.3,140.3,38,141.4,38.3z M182.1,41.2
		c0,1.6-0.8,2.5-2.4,2.8c-2.4,0.5-5.3,0.7-8.9,0.7c-7.7,0-11.5-2.6-11.5-7.7c0-3.5,2.3-5.8,7-7c0.3-0.1,2.1-0.4,5.5-1
		c1.9-0.3,3-0.6,3.6-0.8c-0.1-1-0.6-1.7-1.6-2c-0.5-0.2-1.5-0.3-2.8-0.3c-2.2,0-4.1,0.1-5.7,0.3l-2.5,0.3c-0.1,0-0.1,0-0.2,0.1
		c-0.7,0-1.2-0.4-1.4-1.3c0-0.1-0.1-0.7-0.1-2.1c0-1.6,1.4-2.6,4.1-3c0.5-0.1,2.4-0.1,6-0.1c7.3,0,11,3,11,9.1V41.2z M195.1,43
		c0,0.9-0.5,1.4-1.6,1.4h-3.9c-0.9,0-1.4-0.5-1.4-1.4V12.1c0-0.9,0.5-1.4,1.4-1.4h2.2c2.1,0,3.2,1,3.2,3.1V43z"/>
</g>
<g>
	<path class="st0" d="M24.9,82.9v5.9c0,7.3-3.5,11.2-10.6,11.2h-3.4v17.1H3.8V71.7h10.5C21.4,71.7,24.9,75.7,24.9,82.9z M10.9,78.2
		v15.4h3.4c2.3,0,3.5-1,3.5-4.3v-6.8c0-3.2-1.2-4.3-3.5-4.3H10.9z"/>
	<path class="st0" d="M43.2,117.1c-0.4-1.2-0.6-1.9-0.6-5.6v-7.1c0-4.2-1.4-5.8-4.7-5.8h-2.5v18.5h-7.1V71.7h10.8
		c7.4,0,10.6,3.4,10.6,10.4v3.6c0,4.7-1.5,7.7-4.7,9.1v0.1c3.6,1.5,4.7,4.9,4.7,9.6v7c0,2.2,0.1,3.8,0.8,5.5h-7.3V117.1z M35.4,78.2
		v13.9h2.8c2.7,0,4.3-1.2,4.3-4.8v-4.4c0-3.2-1.1-4.7-3.6-4.7H35.4z"/>
	<path class="st0" d="M61.5,90.8h9.8v6.5h-9.8v13.3h12.3v6.5H54.3V71.7h19.5v6.5H61.5V90.8z"/>
	<path class="st0" d="M93.2,103.9h0.1l4.8-32.2h9.9v45.4h-6.7V84.5h-0.1l-4.8,32.6h-6.7L84.5,85h-0.1v32.1h-6.2V71.7h9.9L93.2,103.9
		z"/>
	<path class="st0" d="M113.3,71.7h7.1v45.4h-7.1V71.7z"/>
	<path class="st0" d="M132.7,90.8h9.8v6.5h-9.8v13.3H145v6.5h-19.5V71.7H145v6.5h-12.3V90.8z"/>
	<path class="st0" d="M164.4,117.1c-0.4-1.2-0.6-1.9-0.6-5.6v-7.1c0-4.2-1.4-5.8-4.7-5.8h-2.5v18.5h-7.1V71.7h10.8
		c7.4,0,10.6,3.4,10.6,10.4v3.6c0,4.7-1.5,7.7-4.7,9.1v0.1c3.6,1.5,4.7,4.9,4.7,9.6v7c0,2.2,0.1,3.8,0.8,5.5h-7.3V117.1z
		 M156.6,78.2v13.9h2.8c2.7,0,4.3-1.2,4.3-4.8v-4.4c0-3.2-1.1-4.7-3.6-4.7H156.6z"/>
	<path class="st0" d="M206.3,100.2v6c0,7.3-3.6,11.4-10.6,11.4s-10.6-4.2-10.6-11.4V82.6c0-7.3,3.6-11.4,10.6-11.4
		s10.6,4.2,10.6,11.4V87h-6.7v-4.9c0-3.2-1.4-4.5-3.7-4.5c-2.3,0-3.7,1.2-3.7,4.5v24.5c0,3.2,1.4,4.4,3.7,4.4c2.3,0,3.7-1.2,3.7-4.4
		v-6.5L206.3,100.2L206.3,100.2z"/>
	<path class="st0" d="M210.6,71.7h7.1v38.9h11.7v6.5h-18.9L210.6,71.7L210.6,71.7z"/>
	<path class="st0" d="M239.4,71.7v35c0,3.2,1.4,4.4,3.7,4.4c2.3,0,3.7-1.2,3.7-4.4v-35h6.7v34.6c0,7.3-3.6,11.4-10.6,11.4
		s-10.6-4.2-10.6-11.4V71.7H239.4z"/>
	<path class="st0" d="M279.8,82.1v1.6c0,4.7-1.4,7.6-4.6,9.1v0.1c3.8,1.5,5.3,4.9,5.3,9.7v3.7c0,7-3.7,10.8-10.8,10.8h-11.2V71.7
		h10.8C276.6,71.7,279.8,75.1,279.8,82.1z M265.6,78.2v12h2.8c2.7,0,4.3-1.2,4.3-4.8v-2.5c0-3.2-1.1-4.7-3.6-4.7H265.6z M265.6,96.7
		v13.9h4.1c2.4,0,3.7-1.1,3.7-4.5v-4c0-4.2-1.4-5.5-4.6-5.5L265.6,96.7L265.6,96.7z"/>
</g>
<text transform="matrix(1 0 0 1 111.5467 152.6675)" class="st0 st1 st2">2021</text>
</svg>
