<?xml version="1.0" encoding="utf-8"?>
<!-- Generator: Adobe Illustrator 23.0.6, SVG Export Plug-In . SVG Version: 6.00 Build 0)  -->
<svg version="1.1" id="Layer_1" xmlns="http://www.w3.org/2000/svg" xmlns:xlink="http://www.w3.org/1999/xlink" x="0px" y="0px"
	 viewBox="0 0 1366 266" style="enable-background:new 0 0 1366 266;" xml:space="preserve">
<g id="Layer_36">
	<path d="M1361.3,25.8c1.4-6.8,2.7-13.5,3.4-20.3c0-2-0.7-3.4-2.7-4.1c-2,0-3.4,0.7-4.1,2.7c-0.7,6.8-2,13.5-3.4,19.6
		c-0.7,2,0.7,3.4,2.7,4.1C1359.3,29.2,1360.7,27.8,1361.3,25.8L1361.3,25.8z"/>
</g>
<g id="Layer_35">
	<path d="M1347.8,71.8c2.7-6.1,4.7-12.9,6.8-19.6c0.7-2-0.7-3.4-2-4.1c-2-0.7-3.4,0.7-4.1,2c-2,6.1-4.1,12.9-6.8,18.9
		c-0.7,2,0,3.4,2,4.1C1345.1,74.5,1347.1,73.8,1347.8,71.8z"/>
</g>
<g id="Layer_34">
	<path d="M1326.8,115.1c3.4-6.1,6.8-12.2,9.5-18.3c0.7-1.4,0-3.4-1.4-4.7c-1.4-0.7-3.4,0-4.7,1.4c-2.7,6.1-6.1,12.2-9.5,17.6
		c-0.7,1.4-0.7,3.4,1.4,4.7C1324.1,117.1,1326.2,116.5,1326.8,115.1z"/>
</g>
<g id="Layer_33">
	<path d="M1299.1,154.4c4.7-5.4,8.8-10.8,12.9-16.2c1.4-1.4,0.7-3.4-0.7-4.7c-1.4-1.4-3.4-0.7-4.7,0.7c-4.1,5.4-8.1,10.8-12.2,15.6
		c-1.4,1.4-1.4,3.4,0.7,4.7C1295.7,155.7,1297.7,155.7,1299.1,154.4L1299.1,154.4z"/>
</g>
<g id="Layer_32">
	<path d="M1264.6,187.5c5.4-4.1,10.8-8.8,15.6-13.5c1.4-1.4,1.4-3.4,0-4.7c-1.4-1.4-3.4-1.4-4.7,0c-4.7,4.7-10.1,8.8-14.9,12.9
		c-1.4,1.4-2,3.4-0.7,4.7S1263.2,188.2,1264.6,187.5L1264.6,187.5z"/>
</g>
<g id="Layer_31">
	<path d="M1224.7,213.9c6.1-3.4,12.2-6.8,17.6-10.1c1.4-0.7,2-3.4,0.7-4.7c-0.7-1.4-3.4-2-4.7-0.7c-5.4,3.4-11.5,6.8-16.9,10.1
		c-1.4,0.7-2,2.7-1.4,4.7C1221.3,213.9,1223.3,214.6,1224.7,213.9L1224.7,213.9z"/>
</g>
<g id="Layer_30">
	<path d="M1181.4,233.5c6.8-2,12.9-4.7,18.9-7.4c2-0.7,2.7-2.7,2-4.7c-0.7-2-2.7-2.7-4.7-2c-6.1,2.7-12.2,5.4-18.9,7.4
		c-2,0.7-2.7,2.7-2,4.1C1177.3,232.8,1179.3,233.5,1181.4,233.5z"/>
</g>
<g id="Layer_29">
	<path d="M1135.4,246.4c6.8-1.4,13.5-3.4,19.6-4.7c2-0.7,2.7-2,2-4.1c-0.7-2-2-2.7-4.1-2c-6.1,2-12.9,3.4-19.6,4.7
		c-2,0.7-2.7,2-2.7,4.1C1132,245.7,1133.3,247.1,1135.4,246.4z"/>
</g>
<g id="Layer_28">
	<path d="M1088,253.8c2.7,0,5.4-0.7,7.4-0.7c4.1-0.7,8.8-1.4,12.9-2c2,0,3.4-2,2.7-4.1c0-2-2-3.4-4.1-2.7c-4.1,0.7-8.1,1.4-12.2,2
		c-2.7,0-4.7,0.7-7.4,0.7c-2,0-3.4,2-3.4,3.4C1084.6,252.5,1086.6,253.8,1088,253.8L1088,253.8z"/>
</g>
<g id="Layer_27">
	<path d="M1040.6,254.5c6.8,0.7,13.5,0.7,20.3,0.7c2,0,3.4-1.4,3.4-3.4s-1.4-3.4-3.4-3.4c-6.8,0-13.5,0-20.3-0.7
		c-2,0-3.4,1.4-3.4,3.4C1037.2,252.5,1038.6,254.5,1040.6,254.5z"/>
</g>
<g id="Layer_26">
	<path d="M993.3,247.7c6.8,1.4,13.5,2.7,20.3,3.4c2,0,3.4-0.7,4.1-2.7c0-2-0.7-3.4-2.7-4.1c-6.8-1.4-12.9-2-19.6-3.4
		c-2-0.7-3.4,0.7-4.1,2.7C989.9,245,991.2,247.1,993.3,247.7z"/>
</g>
<g id="Layer_25">
	<path d="M947.3,235.6c6.8,2,12.9,4.1,19.6,6.1c2,0.7,3.4-0.7,4.1-2c0.7-2-0.7-3.4-2-4.1c-6.1-2-12.9-3.4-19.6-5.4
		c-2-0.7-3.4,0.7-4.1,2C944.6,232.8,945.2,234.9,947.3,235.6L947.3,235.6z"/>
</g>
<g id="Layer_24">
	<path d="M901.9,219.3c6.1,2.7,12.9,4.7,18.9,7.4c2,0.7,3.4,0,4.1-2s0-3.4-2-4.1c-6.1-2-12.9-4.7-18.9-7.4c-2-0.7-3.4,0-4.1,2
		C899.9,216.6,900.6,218.6,901.9,219.3z"/>
</g>
<g id="Layer_23">
	<path d="M858.6,200.4c6.1,2.7,12.2,5.4,18.9,8.1c2,0.7,3.4,0,4.7-2c0.7-2,0-3.4-2-4.7c-6.1-2.7-12.2-5.4-18.3-8.1
		c-2-0.7-3.4,0-4.7,1.4C855.9,197.7,856.6,199.7,858.6,200.4L858.6,200.4z"/>
</g>
<g id="Layer_22">
	<path d="M815.3,180.1c6.1,2.7,12.2,6.1,18.3,8.8c1.4,0.7,3.4,0,4.7-1.4c0.7-1.4,0-3.4-1.4-4.7c-6.1-2.7-12.2-6.1-18.3-8.8
		c-1.4-0.7-3.4,0-4.7,1.4C813.3,177.4,814,179.4,815.3,180.1L815.3,180.1z"/>
</g>
<g id="Layer_21">
	<path d="M773.4,159.1c6.1,3.4,12.2,6.1,18.3,8.8c1.4,0.7,3.4,0,4.7-1.4c0.7-1.4,0-3.4-1.4-4.7c-6.1-2.7-12.2-6.1-18.3-8.8
		c-1.4-0.7-3.4,0-4.7,1.4C770.7,156.4,771.3,158.4,773.4,159.1L773.4,159.1z"/>
</g>
<g id="Layer_20">
	<path d="M730.7,137.4c6.1,2.7,12.2,6.1,18.3,9.5c1.4,0.7,3.4,0,4.7-1.4c0.7-1.4,0-3.4-1.4-4.7c-6.1-3.4-12.2-6.1-18.3-9.5
		c-1.4-0.7-3.4,0-4.7,1.4C728.7,134.7,729.4,136.8,730.7,137.4L730.7,137.4z"/>
</g>
<g id="Layer_19">
	<path d="M688.1,116.5c6.1,2.7,12.2,6.1,18.3,8.8c1.4,0.7,3.4,0,4.7-1.4c0.7-1.4,0-3.4-1.4-4.7c-6.1-2.7-12.2-6.1-18.3-8.8
		c-1.4-0.7-3.4,0-4.7,1.4C686.1,113.8,686.8,115.8,688.1,116.5L688.1,116.5z"/>
</g>
<g id="Layer_18">
	<path d="M645.5,96.9c6.1,2.7,12.2,5.4,18.3,8.1c2,0.7,3.4,0,4.7-1.4c0.7-2,0-3.4-1.4-4.7c-6.1-2.7-12.2-5.4-18.3-8.1
		c-2-0.7-3.4,0-4.7,2C642.8,94.1,643.5,96.2,645.5,96.9L645.5,96.9z"/>
</g>
<g id="Layer_17">
	<path d="M602.2,78.6c6.1,2.7,12.2,4.7,18.9,7.4c2,0.7,3.4,0,4.7-2c0.7-2,0-3.4-2-4.7c-6.1-2.7-12.9-5.4-18.9-7.4
		c-2-0.7-3.4,0-4.1,2C599.5,75.9,600.2,77.9,602.2,78.6L602.2,78.6z"/>
</g>
<g id="Layer_16">
	<path d="M557.5,62.3c6.1,2,12.9,4.1,18.9,6.8c2,0.7,3.4,0,4.1-2s0-3.4-2-4.1c-6.1-2-12.9-4.7-19.6-6.8c-2-0.7-3.4,0.7-4.1,2
		C554.8,60.3,556.2,61.7,557.5,62.3z"/>
</g>
<g id="Layer_15">
	<path d="M512.2,49.5c6.8,1.4,12.9,3.4,19.6,5.4c2,0.7,3.4-0.7,4.1-2c0.7-2-0.7-3.4-2-4.1c-6.8-2-12.9-3.4-19.6-5.4
		c-2-0.7-3.4,0.7-4.1,2.7C509.5,47.5,510.9,49.5,512.2,49.5L512.2,49.5z"/>
</g>
<g id="Layer_14">
	<path d="M466.2,40.7c6.8,0.7,13.5,2,19.6,3.4c2,0.7,3.4-0.7,4.1-2.7c0.7-2-0.7-3.4-2.7-4.1c-6.8-1.4-13.5-2-20.3-3.4
		c-2,0-3.4,1.4-4.1,2.7C463.5,38.7,464.8,40.7,466.2,40.7z"/>
</g>
<g id="Layer_13">
	<path d="M419.5,36.6c6.8,0,13.5,0.7,20.3,0.7c2,0,3.4-1.4,3.4-3.4s-1.4-3.4-3.4-3.4c-6.8-0.7-13.5-0.7-20.3-0.7
		c-2,0-3.4,1.4-3.4,3.4C416.1,35.3,417.5,36.6,419.5,36.6L419.5,36.6z"/>
</g>
<g id="Layer_12">
	<path d="M372.8,38.7c6.8-0.7,13.5-1.4,20.3-1.4c2,0,3.4-1.4,3.4-3.4s-1.4-3.4-3.4-3.4c-6.8,0.7-13.5,0.7-20.3,1.4
		c-2,0-3.4,2-2.7,4.1C369.4,38,370.8,39.3,372.8,38.7L372.8,38.7z"/>
</g>
<g id="Layer_11">
	<path d="M326.8,46.8c6.8-1.4,12.9-3.4,19.6-4.1c2-0.7,3.4-2,2.7-4.1c-0.7-2-2-3.4-4.1-2.7c-6.8,1.4-13.5,2.7-20.3,4.1
		c-2,0.7-2.7,2-2.7,4.1C322.8,46.1,324.8,47.5,326.8,46.8L326.8,46.8z"/>
</g>
<g id="Layer_10">
	<path d="M282.2,61.7c6.1-2.7,12.9-4.7,18.9-6.8c2-0.7,2.7-2.7,2-4.1c-0.7-2-2.7-2.7-4.1-2c-6.1,2-12.9,4.7-18.9,6.8
		c-2,0.7-2.7,2.7-2,4.1C278.1,61,280.1,62.3,282.2,61.7L282.2,61.7z"/>
</g>
<g id="Layer_9">
	<path d="M239.5,81.3c6.1-3.4,12.2-6.1,17.6-9.5c1.4-0.7,2.7-2.7,1.4-4.7c-0.7-1.4-2.7-2.7-4.7-1.4c-6.1,2.7-12.2,6.1-18.3,9.5
		c-1.4,0.7-2,2.7-1.4,4.7C236.2,81.3,238.2,82,239.5,81.3L239.5,81.3z"/>
</g>
<g id="Layer_8">
	<path d="M199.6,105.6c5.4-4.1,11.5-7.4,16.9-10.8c1.4-0.7,2-3.4,1.4-4.7c-0.7-1.4-3.4-2-4.7-1.4c-5.4,3.4-11.5,7.4-16.9,11.5
		c-1.4,1.4-2,3.4-0.7,4.7C195.6,106.3,198.3,107,199.6,105.6L199.6,105.6z"/>
</g>
<g id="Layer_7">
	<path d="M161.7,134.1c5.4-4.1,10.8-8.8,15.6-12.9c1.4-1.4,2-3.4,0.7-4.7c-1.4-1.4-3.4-2-4.7-0.7c-5.4,4.1-10.8,8.1-16.2,12.9
		c-1.4,1.4-1.4,3.4-0.7,4.7C158.3,135.4,160.4,135.4,161.7,134.1L161.7,134.1z"/>
</g>
<g id="Layer_6">
	<path d="M127.2,165.9c4.7-4.7,10.1-9.5,14.9-13.5c1.4-1.4,1.4-3.4,0-4.7c-1.4-1.4-3.4-1.4-4.7,0c-4.7,4.7-10.1,9.5-14.9,14.2
		c-1.4,1.4-1.4,3.4,0,4.7S125.9,167.2,127.2,165.9L127.2,165.9z"/>
</g>
<g id="Layer_5">
	<path d="M94.1,199.7c4.7-4.7,9.5-10.1,13.5-14.9c1.4-1.4,1.4-3.4,0-4.7s-3.4-1.4-4.7,0c-4.7,4.7-9.5,9.5-14.2,14.9
		c-1.4,1.4-1.4,3.4,0,4.7C90.7,201,92.7,201,94.1,199.7L94.1,199.7z"/>
</g>
<g id="Layer_4">
	<path d="M63.6,235.6c4.1-5.4,8.8-10.1,12.9-15.6c1.4-1.4,1.4-3.4-0.7-4.7c-1.4-1.4-3.4-1.4-4.7,0.7c-4.1,5.4-8.8,10.1-12.9,15.6
		c-1.4,1.4-0.7,3.4,0.7,4.7C60.2,236.9,62.3,236.9,63.6,235.6L63.6,235.6z"/>
</g>
<g id="Layer_2">
	<g>
		<path d="M38.6,98.2c-21,0-37.9,16.9-37.9,37.9c0,37.2,37.9,81.9,37.9,81.9s37.9-44.7,37.9-81.9C77.2,115.1,60.2,98.2,38.6,98.2z
			 M38.6,157.7c-12.2,0-22.3-10.1-22.3-22.3s10.1-22.3,22.3-22.3s22.3,10.1,22.3,22.3S50.8,157.7,38.6,157.7z"/>
		<path d="M22.4,249.8c0-8.8,7.4-16.2,16.2-16.2s16.2,7.4,16.2,16.2S47.4,266,38.6,266S22.4,258.6,22.4,249.8z"/>
	</g>
</g>
</svg>
