<?xml version="1.0" encoding="utf-8"?>
<!-- Generator: Adobe Illustrator 23.0.6, SVG Export Plug-In . SVG Version: 6.00 Build 0)  -->
<svg version="1.1" id="Layer_1" xmlns="http://www.w3.org/2000/svg" xmlns:xlink="http://www.w3.org/1999/xlink" x="0px" y="0px"
	 viewBox="0 0 1109 670" style="enable-background:new 0 0 1109 670;" xml:space="preserve">
<g id="Layer_68">
	<path d="M945,169.5c5-5,10-10,15-15c1.4-1.4,1.4-3.6,0-5s-3.6-1.4-5,0c-5,5-10,10-15,15c-1.4,1.4-1.4,3.6,0,5
		S943.6,170.9,945,169.5L945,169.5z"/>
</g>
<g id="Layer_67">
	<path d="M909.4,203.8c5-5,10.7-9.3,15.7-14.3c1.4-1.4,1.4-3.6,0-5s-3.6-1.4-5,0c-5,5-10.7,10-15.7,14.3c-1.4,1.4-1.4,3.6,0,5
		S907.9,205.2,909.4,203.8L909.4,203.8z"/>
</g>
<g id="Layer_66">
	<path d="M870.8,235.9c5.7-4.3,10.7-9.3,16.4-13.6c1.4-1.4,1.4-3.6,0.7-5c-1.4-1.4-3.6-1.4-5-0.7c-5.7,5-10.7,9.3-16.4,13.6
		c-1.4,1.4-1.4,3.6-0.7,5C867.2,237.3,869.4,237.3,870.8,235.9L870.8,235.9z"/>
</g>
<g id="Layer_65">
	<path d="M830.8,266.6c5.7-4.3,11.4-8.6,17.1-12.9c1.4-1.4,2.1-3.6,0.7-5c-1.4-1.4-3.6-2.1-5-0.7c-5.7,4.3-11.4,8.6-17.1,12.9
		c-1.4,1.4-2.1,3.6-0.7,5C827.3,267.3,829.4,268,830.8,266.6L830.8,266.6z"/>
</g>
<g id="Layer_64">
	<path d="M789.4,294.4c5.7-3.6,12.1-7.9,17.9-11.4c1.4-1.4,2.1-3.6,0.7-5c-1.4-1.4-3.6-2.1-5-0.7c-5.7,4.3-12.1,7.9-17.9,11.4
		c-1.4,0.7-2.1,3.6-1.4,5C785.9,295.1,788,295.9,789.4,294.4L789.4,294.4z"/>
</g>
<g id="Layer_63">
	<path d="M745.9,320.1c6.4-3.6,12.1-7.1,18.6-10.7c1.4-0.7,2.1-2.9,1.4-5c-0.7-1.4-2.9-2.1-5-1.4c-6.4,3.6-12.1,7.1-18.6,10
		c-1.4,0.7-2.1,2.9-1.4,5C742.3,320.1,744.4,320.9,745.9,320.1L745.9,320.1z"/>
</g>
<g id="Layer_62">
	<path d="M700.9,341.6c6.4-2.9,12.9-5.7,19.3-8.6c1.4-0.7,2.9-2.9,1.4-5c-0.7-1.4-2.9-2.9-5-1.4c-6.4,2.9-12.9,5.7-19.3,8.6
		c-2.1,0.7-2.9,2.9-2.1,5C696.6,341.6,698.7,343,700.9,341.6L700.9,341.6z"/>
</g>
<g id="Layer_61">
	<path d="M653.8,359.4c6.4-2.1,13.6-4.3,20.7-7.1c2.1-0.7,2.9-2.9,2.1-4.3s-2.9-2.9-4.3-2.1c-7.1,2.1-13.6,5-20,7.1
		c-2.1,0.7-2.9,2.9-2.1,4.3C650.2,358.7,651.6,360.1,653.8,359.4L653.8,359.4z"/>
</g>
<g id="Layer_60">
	<path d="M605.2,371.5c7.1-1.4,14.3-2.9,21.4-4.3c2.1-0.7,2.9-2.1,2.9-4.3c-0.7-2.1-2.1-2.9-4.3-2.9c-7.1,1.4-14.3,2.9-20.7,4.3
		c-2.1,0.7-3.6,2.1-2.9,4.3C600.9,370.8,603.1,372.3,605.2,371.5L605.2,371.5z"/>
</g>
<g id="Layer_59">
	<path d="M554.5,377.3c7.1,0,14.3-0.7,21.4-1.4c2.1,0,3.6-2.1,2.9-3.6c0-2.1-2.1-3.6-3.6-2.9c-7.1,0.7-14.3,1.4-21.4,1.4
		c-2.1,0-3.6,1.4-3.6,3.6C550.9,375.8,553.1,378,554.5,377.3L554.5,377.3z"/>
</g>
<g id="Layer_58">
	<path d="M504.5,375.1c7.1,0.7,14.3,1.4,21.4,2.1c2.1,0,3.6-1.4,3.6-3.6c0-2.1-1.4-3.6-3.6-3.6c-7.1-0.7-14.3-1.4-20.7-2.1
		c-2.1,0-3.6,1.4-4.3,2.9C501,373,502.4,375.1,504.5,375.1z"/>
</g>
<g id="Layer_57">
	<path d="M455.3,363c6.4,2.1,13.6,4.3,20.7,6.4c2.1,0.7,3.6-0.7,4.3-2.9s-0.7-3.6-2.9-4.3c-7.1-2.1-13.6-4.3-20-6.4
		c-2.1-0.7-3.6,0-4.3,2.1S453.1,362.3,455.3,363L455.3,363z"/>
</g>
<g id="Layer_56">
	<path d="M410.3,339.4c5.7,4.3,12.1,7.9,18.6,11.4c1.4,0.7,3.6,0,5-1.4c0.7-1.4,0-3.6-1.4-5c-6.4-3.6-12.1-7.1-17.9-11.4
		c-1.4-1.4-3.6-0.7-5,0.7C408.1,335.8,408.9,338,410.3,339.4L410.3,339.4z"/>
</g>
<g id="Layer_55">
	<path d="M372.4,305.9c5,5,10,10.7,15,15.7c1.4,1.4,3.6,1.4,5,0s1.4-3.6,0-5c-5-5-10-10-15-15c-1.4-1.4-3.6-1.4-5,0
		C371.7,301.6,371,304.4,372.4,305.9L372.4,305.9z"/>
</g>
<g id="Layer_53">
	<path d="M343.2,264.4c3.6,6.4,7.1,12.9,11.4,18.6c1.4,1.4,3.6,2.1,5,0.7s2.1-3.6,0.7-5c-4.3-5.7-7.9-12.1-10.7-17.9
		c-0.7-1.4-2.9-2.1-5-1.4C343.2,260.2,342.5,262.3,343.2,264.4L343.2,264.4z"/>
</g>
<g id="Layer_52">
	<path d="M326.8,215.9c1.4,7.1,2.9,14.3,5.7,21.4c0.7,2.1,2.9,2.9,4.3,2.1c2.1-0.7,2.9-2.9,2.1-4.3c-2.1-6.4-4.3-13.6-5-20
		c-0.7-2.1-2.1-3.6-4.3-2.9C327.5,212.3,326,214.5,326.8,215.9z"/>
</g>
<g id="Layer_51">
	<path d="M325.3,165.2c-0.7,7.1-1.4,14.3-1.4,21.4l0,0c0,2.1,1.4,3.6,3.6,3.6s3.6-1.4,3.6-3.6l0,0c0-7.1,0.7-13.6,1.4-20.7
		c0-2.1-1.4-3.6-2.9-4.3C327.5,161.6,325.3,163.1,325.3,165.2L325.3,165.2z"/>
</g>
<g id="Layer_50">
	<path d="M339.6,116.6c-2.9,6.4-5.7,13.6-7.9,20c-0.7,2.1,0.7,3.6,2.1,4.3c2.1,0.7,3.6-0.7,4.3-2.1c2.1-6.4,5-12.9,7.9-19.3
		c0.7-1.4,0-3.6-1.4-5C342.5,113.8,340.3,114.5,339.6,116.6z"/>
</g>
<g id="Layer_49">
	<path d="M368.2,74.5c-5,5.7-9.3,11.4-13.6,17.1c-1.4,1.4-0.7,3.6,0.7,5c1.4,1.4,3.6,0.7,5-0.7c4.3-5.7,8.6-11.4,12.9-16.4
		c1.4-1.4,1.4-3.6,0-5C371.7,72.4,369.6,73.1,368.2,74.5z"/>
</g>
<g id="Layer_48">
	<path d="M406.7,41.7c-6.4,4.3-12.1,8.6-17.9,12.9c-1.4,1.4-1.4,3.6-0.7,5c1.4,1.4,3.6,1.4,5,0.7c5.7-4.3,11.4-8.6,17.1-12.1
		c1.4-0.7,2.1-3.6,1.4-5C410.3,41,408.1,40.3,406.7,41.7L406.7,41.7z"/>
</g>
<g id="Layer_47">
	<path d="M453.1,20.3c-7.1,2.1-13.6,5-20.7,7.9c-2.1,0.7-2.9,2.9-2.1,5s2.9,2.9,5,2.1c6.4-2.9,12.9-5,20-7.1
		c2.1-0.7,2.9-2.9,2.1-4.3C456.7,20.3,454.6,19.5,453.1,20.3L453.1,20.3z"/>
</g>
<g id="Layer_46">
	<path d="M710.2,135.9c-3.6-6.4-7.9-12.1-11.4-18.6c-1.4-1.4-3.6-2.1-5-0.7c-1.4,1.4-2.1,3.6-0.7,5c3.6,5.7,7.9,11.4,11.4,17.9
		c0.7,1.4,2.9,2.1,5,1.4C710.2,139.5,710.9,137.4,710.2,135.9L710.2,135.9z"/>
</g>
<g id="Layer_45">
	<path d="M680.9,94.5c-5-5.7-10-10.7-15-15.7c-1.4-1.4-3.6-1.4-5,0s-1.4,3.6,0,5c5,5,10,10,14.3,15.7c1.4,1.4,3.6,1.4,5,0.7
		C682.3,98.1,682.3,95.9,680.9,94.5z"/>
</g>
<g id="Layer_44">
	<path d="M644.5,59.5l-1.4-0.7c-5.7-4.3-10.7-7.9-16.4-11.4c-1.4-0.7-3.6-0.7-5,1.4c-0.7,1.4-0.7,3.6,1.4,5
		c5.7,3.6,10.7,7.1,16.4,10.7l1.4,0.7c1.4,1.4,3.6,0.7,5-0.7C646.6,63.1,645.9,61,644.5,59.5L644.5,59.5z"/>
</g>
<g id="Layer_43">
	<path d="M600.9,33.1c-6.4-2.9-13.6-5.7-20-8.6c-2.1-0.7-3.6,0-4.3,2.1s0,3.6,2.1,4.3c6.4,2.1,12.9,5,19.3,8.6c1.4,0.7,3.6,0,5-1.4
		C603.8,36,603.1,33.8,600.9,33.1L600.9,33.1z"/>
</g>
<g id="Layer_42">
	<path d="M553.1,16.7c-7.1-1.4-14.3-2.9-21.4-3.6c-2.1,0-3.6,1.4-4.3,2.9s1.4,3.6,2.9,4.3c7.1,0.7,13.6,2.1,20.7,3.6
		c2.1,0.7,3.6-0.7,4.3-2.9C556.7,18.8,555.2,16.7,553.1,16.7L553.1,16.7z"/>
</g>
<g id="Layer_41">
	<path d="M503.1,11.7c-7.1,0-14.3,0.7-21.4,2.1c-2.1,0-3.6,2.1-2.9,4.3c0,2.1,2.1,3.6,4.3,2.9c7.1-0.7,13.6-1.4,20.7-2.1
		c2.1,0,3.6-1.4,3.6-3.6C506.7,13.1,504.5,11.7,503.1,11.7z"/>
</g>
<g id="Layer_40">
	<path d="M732.3,180.9c-2.9-6.4-5.7-13.6-8.6-20c-0.7-1.4-2.9-2.9-5-1.4c-1.4,0.7-2.9,2.9-1.4,5c2.9,6.4,5.7,12.9,8.6,19.3
		c0.7,2.1,2.9,2.9,5,2.1C732.3,185.2,733,183.1,732.3,180.9L732.3,180.9z"/>
</g>
<g id="Layer_39">
	<path d="M748.7,228.7c-2.1-7.1-4.3-13.6-6.4-20.7c-0.7-2.1-2.9-2.9-4.3-2.1c-2.1,0.7-2.9,2.9-2.1,4.3c2.1,6.4,4.3,13.6,6.4,20
		c0.7,2.1,2.9,2.9,4.3,2.1C748.7,232.3,749.4,230.9,748.7,228.7z"/>
</g>
<g id="Layer_38">
	<path d="M765.1,328c0-7.1-0.7-14.3-1.4-21.4c0-2.1-2.1-3.6-3.6-2.9c-2.1,0-3.6,2.1-2.9,3.6c0.7,7.1,1.4,14.3,1.4,21.4
		c0,2.1,1.4,3.6,3.6,3.6C763.7,331.6,765.1,330.1,765.1,328L765.1,328z"/>
	<path d="M760.1,278c-1.4-7.1-2.1-14.3-4.3-21.4c-0.7-2.1-2.1-2.9-4.3-2.9c-2.1,0.7-2.9,2.1-2.9,4.3c1.4,7.1,2.9,13.6,3.6,20.7
		c0,2.1,2.1,3.6,4.3,2.9C758.7,281.6,760.1,279.4,760.1,278L760.1,278z"/>
</g>
<g id="Layer_37">
	<path d="M764.4,378.7c0.7-7.1,0.7-14.3,0.7-21.4c0-2.1-1.4-3.6-3.6-3.6s-3.6,1.4-3.6,3.6c0,7.1-0.7,14.3-0.7,21.4
		c0,2.1,1.4,3.6,3.6,3.6C762.3,381.5,764.4,380.1,764.4,378.7L764.4,378.7z"/>
</g>
<g id="Layer_36_1_">
	<path d="M757.3,428c1.4-7.1,2.9-14.3,3.6-21.4c0-2.1-0.7-3.6-2.9-4.3c-2.1,0-3.6,0.7-4.3,2.9c-0.7,7.1-2.1,14.3-3.6,20.7
		c-0.7,2.1,0.7,3.6,2.9,4.3C755.2,431.5,756.6,430.1,757.3,428L757.3,428z"/>
</g>
<g id="Layer_35_1_">
	<path d="M743,476.5c2.9-6.4,5-13.6,7.1-20.7c0.7-2.1-0.7-3.6-2.1-4.3c-2.1-0.7-3.6,0.7-4.3,2.1c-2.1,6.4-4.3,13.6-7.1,20
		c-0.7,2.1,0,3.6,2.1,4.3C740.2,479.4,742.3,478.6,743,476.5z"/>
</g>
<g id="Layer_34_1_">
	<path d="M720.9,522.2c3.6-6.4,7.1-12.9,10-19.3c0.7-1.4,0-3.6-1.4-5c-1.4-0.7-3.6,0-5,1.4c-2.9,6.4-6.4,12.9-10,18.6
		c-0.7,1.4-0.7,3.6,1.4,5S720.2,523.6,720.9,522.2z"/>
</g>
<g id="Layer_33_1_">
	<path d="M691.6,563.6c5-5.7,9.3-11.4,13.6-17.1c1.4-1.4,0.7-3.6-0.7-5c-1.4-1.4-3.6-0.7-5,0.7c-4.3,5.7-8.6,11.4-12.9,16.4
		c-1.4,1.4-1.4,3.6,0.7,5C688,565,690.2,565,691.6,563.6L691.6,563.6z"/>
</g>
<g id="Layer_32_1_">
	<path d="M655.2,598.6c5.7-4.3,11.4-9.3,16.4-14.3c1.4-1.4,1.4-3.6,0-5s-3.6-1.4-5,0c-5,5-10.7,9.3-15.7,13.6
		c-1.4,1.4-2.1,3.6-0.7,5C651.6,599.3,653.8,599.3,655.2,598.6L655.2,598.6z"/>
</g>
<g id="Layer_31_1_">
	<path d="M613.1,626.4c6.4-3.6,12.9-7.1,18.6-10.7c1.4-0.7,2.1-3.6,0.7-5c-0.7-1.4-3.6-2.1-5-0.7c-5.7,3.6-12.1,7.1-17.9,10.7
		c-1.4,0.7-2.1,2.9-1.4,5C609.5,626.4,611.6,627.2,613.1,626.4L613.1,626.4z"/>
</g>
<g id="Layer_30_1_">
	<path d="M567.4,647.2c7.1-2.1,13.6-5,20-7.9c2.1-0.7,2.9-2.9,2.1-5c-0.7-2.1-2.9-2.9-5-2.1c-6.4,2.9-12.9,5.7-20,7.9
		c-2.1,0.7-2.9,2.9-2.1,4.3C563.1,646.4,565.2,647.2,567.4,647.2z"/>
</g>
<g id="Layer_29_1_">
	<path d="M518.8,660.7c7.1-1.4,14.3-3.6,20.7-5c2.1-0.7,2.9-2.1,2.1-4.3s-2.1-2.9-4.3-2.1c-6.4,2.1-13.6,3.6-20.7,5
		c-2.1,0.7-2.9,2.1-2.9,4.3C515.2,660,516.7,661.4,518.8,660.7z"/>
</g>
<g id="Layer_28_1_">
	<path d="M468.8,668.6c2.9,0,5.7-0.7,7.9-0.7c4.3-0.7,9.3-1.4,13.6-2.1c2.1,0,3.6-2.1,2.9-4.3c0-2.1-2.1-3.6-4.3-2.9
		c-4.3,0.7-8.6,1.4-12.9,2.1c-2.9,0-5,0.7-7.9,0.7c-2.1,0-3.6,2.1-3.6,3.6C465.3,667.1,467.4,668.6,468.8,668.6L468.8,668.6z"/>
</g>
<g id="Layer_27_1_">
	<path d="M418.9,669.3c7.1,0.7,14.3,0.7,21.4,0.7c2.1,0,3.6-1.4,3.6-3.6s-1.4-3.6-3.6-3.6c-7.1,0-14.3,0-21.4-0.7
		c-2.1,0-3.6,1.4-3.6,3.6C415.3,667.1,416.7,669.3,418.9,669.3z"/>
</g>
<g id="Layer_26_1_">
	<path d="M368.9,662.1c7.1,1.4,14.3,2.9,21.4,3.6c2.1,0,3.6-0.7,4.3-2.9c0-2.1-0.7-3.6-2.9-4.3c-7.1-1.4-13.6-2.1-20.7-3.6
		c-2.1-0.7-3.6,0.7-4.3,2.9C365.3,659.3,366.7,661.4,368.9,662.1z"/>
</g>
<g id="Layer_25_1_">
	<path d="M320.3,649.3c7.1,2.1,13.6,4.3,20.7,6.4c2.1,0.7,3.6-0.7,4.3-2.1c0.7-2.1-0.7-3.6-2.1-4.3c-6.4-2.1-13.6-3.6-20.7-5.7
		c-2.1-0.7-3.6,0.7-4.3,2.1C317.5,646.4,318.2,648.6,320.3,649.3L320.3,649.3z"/>
</g>
<g id="Layer_24_1_">
	<path d="M272.5,632.2c6.4,2.9,13.6,5,20,7.9c2.1,0.7,3.6,0,4.3-2.1c0.7-2.1,0-3.6-2.1-4.3c-6.4-2.1-13.6-5-20-7.9
		c-2.1-0.7-3.6,0-4.3,2.1C270.3,629.3,271.1,631.4,272.5,632.2z"/>
</g>
<g id="Layer_23_1_">
	<path d="M226.8,612.2c6.4,2.9,12.9,5.7,20,8.6c2.1,0.7,3.6,0,5-2.1c0.7-2.1,0-3.6-2.1-5c-6.4-2.9-12.9-5.7-19.3-8.6
		c-2.1-0.7-3.6,0-5,1.4C223.9,609.3,224.6,611.5,226.8,612.2L226.8,612.2z"/>
</g>
<g id="Layer_22_1_">
	<path d="M181.1,590.7c6.4,2.9,12.9,6.4,19.3,9.3c1.4,0.7,3.6,0,5-1.4c0.7-1.4,0-3.6-1.4-5c-6.4-2.9-12.9-6.4-19.3-9.3
		c-1.4-0.7-3.6,0-5,1.4C179,587.9,179.7,590,181.1,590.7L181.1,590.7z"/>
</g>
<g id="Layer_21_1_">
	<path d="M136.8,568.6c6.4,3.6,12.9,6.4,19.3,9.3c1.4,0.7,3.6,0,5-1.4c0.7-1.4,0-3.6-1.4-5c-6.4-2.9-12.9-6.4-19.3-9.3
		c-1.4-0.7-3.6,0-5,1.4C134,565.8,134.7,567.9,136.8,568.6L136.8,568.6z"/>
</g>
<g id="Layer_20_1_">
	<path d="M91.8,545.8c6.4,2.9,12.9,6.4,19.3,10c1.4,0.7,3.6,0,5-1.4c0.7-1.4,0-3.6-1.4-5c-6.4-3.6-12.9-6.4-19.3-10
		c-1.4-0.7-3.6,0-5,1.4C89.7,542.9,90.4,545,91.8,545.8L91.8,545.8z"/>
</g>
<g id="Layer_19_1_">
	<path d="M46.9,523.6c6.4,2.9,12.9,6.4,19.3,9.3c1.4,0.7,3.6,0,5-1.4c0.7-1.4,0-3.6-1.4-5c-6.4-2.9-12.9-6.4-19.3-9.3
		c-1.4-0.7-3.6,0-5,1.4C44.7,520.8,45.4,522.9,46.9,523.6L46.9,523.6z"/>
</g>
<g id="Layer_18_1_">
	<path d="M1.9,502.9c6.4,2.9,12.9,5.7,19.3,8.6c2.1,0.7,3.6,0,5-1.4c0.7-2.1,0-3.6-1.4-5c-6.4-2.9-12.9-5.7-19.3-8.6
		c-2.1-0.7-3.6,0-5,2.1C-1,500.1-0.3,502.2,1.9,502.9L1.9,502.9z"/>
</g>
<g id="Layer_3_1_">
	<g id="Layer_3">
		<path d="M1093.5,158.1l11.4-11.4l-7.1-22.8l6.4-6.4c2.9-2.9,2.9-7.1,0-9.3l0,0c-2.9-2.9-7.1-2.9-9.3,0l-1.4,1.4l-5.7-17.9l5.7-5.7
			c2.9-2.9,2.9-7.1,0-9.3l0,0c-2.9-2.9-7.1-2.9-9.3,0l-0.7,0.7l-7.9-24.3l10.7-11.4c40-37.1,20.7-57.1-17.1-17.1L1058.5,36
			l-24.3-7.9l0.7-0.7c2.9-2.9,2.9-7.1,0-9.3l0,0c-2.9-2.9-7.1-2.9-9.3,0l-5.7,5.7l-17.8-5.7l1.4-1.4c2.9-2.9,2.9-7.1,0-9.3l0,0
			c-2.9-2.9-7.1-2.9-9.3,0l-6.4,6.4L965,6.7l-11.4,11.4l70.7,38.6c4.3,2.1,5,7.9,2.1,11.4l-34.3,40l-29.3-9.3l-4.3,4.3l20,13.6
			c2.9,2.1,4.3,6.4,2.1,9.3s-2.9,5-1.4,6.4c1.4,1.4,4.3,0,6.4-1.4c2.9-2.1,7.1-1.4,9.3,2.1l13.6,20l4.3-4.3l-9.3-29.3l40-34.3
			c3.6-2.9,9.3-2.1,11.4,2.1L1093.5,158.1z"/>
	</g>
</g>
</svg>
