<?xml version="1.0" encoding="utf-8"?>
<!-- Generator: Adobe Illustrator 23.0.6, SVG Export Plug-In . SVG Version: 6.00 Build 0)  -->
<svg version="1.1" xmlns="http://www.w3.org/2000/svg" xmlns:xlink="http://www.w3.org/1999/xlink" x="0px" y="0px"
	 viewBox="0 0 250.4 95.1" style="enable-background:new 0 0 250.4 95.1;" xml:space="preserve">
<g id="Layer_68">
	<path d="M227.5,23.4c0.7-0.7,1.4-1.4,2.1-2.1c0.2-0.2,0.2-0.5,0-0.7s-0.5-0.2-0.7,0c-0.7,0.7-1.4,1.4-2.1,2.1
		c-0.2,0.2-0.2,0.5,0,0.7C227,23.6,227.3,23.6,227.5,23.4L227.5,23.4z"/>
</g>
<g id="Layer_67">
	<path d="M222.4,28.2c0.7-0.7,1.5-1.3,2.2-2c0.2-0.2,0.2-0.5,0-0.7s-0.5-0.2-0.7,0c-0.7,0.7-1.5,1.4-2.2,2c-0.2,0.2-0.2,0.5,0,0.7
		S222.2,28.4,222.4,28.2L222.4,28.2z"/>
</g>
<g id="Layer_66">
	<path d="M217,32.7c0.8-0.6,1.5-1.3,2.3-1.9c0.2-0.2,0.2-0.5,0.1-0.7c-0.2-0.2-0.5-0.2-0.7-0.1c-0.8,0.7-1.5,1.3-2.3,1.9
		c-0.2,0.2-0.2,0.5-0.1,0.7C216.5,32.9,216.8,32.9,217,32.7L217,32.7z"/>
</g>
<g id="Layer_65">
	<path d="M211.4,37c0.8-0.6,1.6-1.2,2.4-1.8c0.2-0.2,0.3-0.5,0.1-0.7s-0.5-0.3-0.7-0.1c-0.8,0.6-1.6,1.2-2.4,1.8
		c-0.2,0.2-0.3,0.5-0.1,0.7C210.9,37.1,211.2,37.2,211.4,37L211.4,37z"/>
</g>
<g id="Layer_64">
	<path d="M205.6,40.9c0.8-0.5,1.7-1.1,2.5-1.6c0.2-0.2,0.3-0.5,0.1-0.7c-0.2-0.2-0.5-0.3-0.7-0.1c-0.8,0.6-1.7,1.1-2.5,1.6
		c-0.2,0.1-0.3,0.5-0.2,0.7C205.1,41,205.4,41.1,205.6,40.9L205.6,40.9z"/>
</g>
<g id="Layer_63">
	<path d="M199.5,44.5c0.9-0.5,1.7-1,2.6-1.5c0.2-0.1,0.3-0.4,0.2-0.7c-0.1-0.2-0.4-0.3-0.7-0.2c-0.9,0.5-1.7,1-2.6,1.4
		c-0.2,0.1-0.3,0.4-0.2,0.7C199,44.5,199.3,44.6,199.5,44.5L199.5,44.5z"/>
</g>
<g id="Layer_62">
	<path d="M193.2,47.5c0.9-0.4,1.8-0.8,2.7-1.2c0.2-0.1,0.4-0.4,0.2-0.7c-0.1-0.2-0.4-0.4-0.7-0.2c-0.9,0.4-1.8,0.8-2.7,1.2
		c-0.3,0.1-0.4,0.4-0.3,0.7C192.6,47.5,192.9,47.7,193.2,47.5L193.2,47.5z"/>
</g>
<g id="Layer_61">
	<path d="M186.6,50c0.9-0.3,1.9-0.6,2.9-1c0.3-0.1,0.4-0.4,0.3-0.6s-0.4-0.4-0.6-0.3c-1,0.3-1.9,0.7-2.8,1c-0.3,0.1-0.4,0.4-0.3,0.6
		C186.1,49.9,186.3,50.1,186.6,50L186.6,50z"/>
</g>
<g id="Layer_60">
	<path d="M179.8,51.7c1-0.2,2-0.4,3-0.6c0.3-0.1,0.4-0.3,0.4-0.6c-0.1-0.3-0.3-0.4-0.6-0.4c-1,0.2-2,0.4-2.9,0.6
		c-0.3,0.1-0.5,0.3-0.4,0.6C179.2,51.6,179.5,51.8,179.8,51.7L179.8,51.7z"/>
</g>
<g id="Layer_59">
	<path d="M172.7,52.5c1,0,2-0.1,3-0.2c0.3,0,0.5-0.3,0.4-0.5c0-0.3-0.3-0.5-0.5-0.4c-1,0.1-2,0.2-3,0.2c-0.3,0-0.5,0.2-0.5,0.5
		C172.2,52.3,172.5,52.6,172.7,52.5L172.7,52.5z"/>
</g>
<g id="Layer_58">
	<path d="M165.7,52.2c1,0.1,2,0.2,3,0.3c0.3,0,0.5-0.2,0.5-0.5s-0.2-0.5-0.5-0.5c-1-0.1-2-0.2-2.9-0.3c-0.3,0-0.5,0.2-0.6,0.4
		C165.2,51.9,165.4,52.2,165.7,52.2z"/>
</g>
<g id="Layer_57">
	<path d="M158.8,50.5c0.9,0.3,1.9,0.6,2.9,0.9c0.3,0.1,0.5-0.1,0.6-0.4s-0.1-0.5-0.4-0.6c-1-0.3-1.9-0.6-2.8-0.9
		c-0.3-0.1-0.5,0-0.6,0.3C158.4,50.1,158.5,50.4,158.8,50.5L158.8,50.5z"/>
</g>
<g id="Layer_56">
	<path d="M152.5,47.2c0.8,0.6,1.7,1.1,2.6,1.6c0.2,0.1,0.5,0,0.7-0.2c0.1-0.2,0-0.5-0.2-0.7c-0.9-0.5-1.7-1-2.5-1.6
		c-0.2-0.2-0.5-0.1-0.7,0.1C152.2,46.7,152.3,47,152.5,47.2L152.5,47.2z"/>
</g>
<g id="Layer_55">
	<path d="M147.2,42.5c0.7,0.7,1.4,1.5,2.1,2.2c0.2,0.2,0.5,0.2,0.7,0s0.2-0.5,0-0.7c-0.7-0.7-1.4-1.4-2.1-2.1
		c-0.2-0.2-0.5-0.2-0.7,0C147.1,41.9,147,42.3,147.2,42.5L147.2,42.5z"/>
</g>
<g id="Layer_53">
	<path d="M143.1,36.7c0.5,0.9,1,1.8,1.6,2.6c0.2,0.2,0.5,0.3,0.7,0.1c0.2-0.2,0.3-0.5,0.1-0.7c-0.6-0.8-1.1-1.7-1.5-2.5
		c-0.1-0.2-0.4-0.3-0.7-0.2C143.1,36.1,143,36.4,143.1,36.7L143.1,36.7z"/>
</g>
<g id="Layer_52">
	<path d="M140.8,29.9c0.2,1,0.4,2,0.8,3c0.1,0.3,0.4,0.4,0.6,0.3c0.3-0.1,0.4-0.4,0.3-0.6c-0.3-0.9-0.6-1.9-0.7-2.8
		c-0.1-0.3-0.3-0.5-0.6-0.4C140.9,29.4,140.7,29.7,140.8,29.9z"/>
</g>
<g id="Layer_51">
	<path d="M140.6,22.8c-0.1,1-0.2,2-0.2,3l0,0c0,0.3,0.2,0.5,0.5,0.5s0.5-0.2,0.5-0.5l0,0c0-1,0.1-1.9,0.2-2.9c0-0.3-0.2-0.5-0.4-0.6
		C140.9,22.3,140.6,22.5,140.6,22.8L140.6,22.8z"/>
</g>
<g id="Layer_50">
	<path d="M142.6,16c-0.4,0.9-0.8,1.9-1.1,2.8c-0.1,0.3,0.1,0.5,0.3,0.6c0.3,0.1,0.5-0.1,0.6-0.3c0.3-0.9,0.7-1.8,1.1-2.7
		c0.1-0.2,0-0.5-0.2-0.7C143,15.6,142.7,15.7,142.6,16z"/>
</g>
<g id="Layer_49">
	<path d="M146.6,10.1c-0.7,0.8-1.3,1.6-1.9,2.4c-0.2,0.2-0.1,0.5,0.1,0.7s0.5,0.1,0.7-0.1c0.6-0.8,1.2-1.6,1.8-2.3
		c0.2-0.2,0.2-0.5,0-0.7C147.1,9.8,146.8,9.9,146.6,10.1z"/>
</g>
<g id="Layer_48">
	<path d="M152,5.5c-0.9,0.6-1.7,1.2-2.5,1.8c-0.2,0.2-0.2,0.5-0.1,0.7c0.2,0.2,0.5,0.2,0.7,0.1c0.8-0.6,1.6-1.2,2.4-1.7
		c0.2-0.1,0.3-0.5,0.2-0.7C152.5,5.4,152.2,5.3,152,5.5L152,5.5z"/>
</g>
<g id="Layer_47">
	<path d="M158.5,2.5c-1,0.3-1.9,0.7-2.9,1.1c-0.3,0.1-0.4,0.4-0.3,0.7s0.4,0.4,0.7,0.3c0.9-0.4,1.8-0.7,2.8-1
		c0.3-0.1,0.4-0.4,0.3-0.6C159,2.5,158.7,2.4,158.5,2.5L158.5,2.5z"/>
</g>
<g id="Layer_46">
	<path d="M194.5,18.7c-0.5-0.9-1.1-1.7-1.6-2.6c-0.2-0.2-0.5-0.3-0.7-0.1c-0.2,0.2-0.3,0.5-0.1,0.7c0.5,0.8,1.1,1.6,1.6,2.5
		c0.1,0.2,0.4,0.3,0.7,0.2C194.5,19.2,194.6,18.9,194.5,18.7L194.5,18.7z"/>
</g>
<g id="Layer_45">
	<path d="M190.4,12.9c-0.7-0.8-1.4-1.5-2.1-2.2c-0.2-0.2-0.5-0.2-0.7,0s-0.2,0.5,0,0.7c0.7,0.7,1.4,1.4,2,2.2
		c0.2,0.2,0.5,0.2,0.7,0.1C190.6,13.4,190.6,13.1,190.4,12.9z"/>
</g>
<g id="Layer_44">
	<path d="M185.3,8l-0.2-0.1c-0.8-0.6-1.5-1.1-2.3-1.6c-0.2-0.1-0.5-0.1-0.7,0.2C182,6.7,182,7,182.3,7.2c0.8,0.5,1.5,1,2.3,1.5
		l0.2,0.1c0.2,0.2,0.5,0.1,0.7-0.1C185.6,8.5,185.5,8.2,185.3,8L185.3,8z"/>
</g>
<g id="Layer_43">
	<path d="M179.2,4.3c-0.9-0.4-1.9-0.8-2.8-1.2c-0.3-0.1-0.5,0-0.6,0.3s0,0.5,0.3,0.6c0.9,0.3,1.8,0.7,2.7,1.2c0.2,0.1,0.5,0,0.7-0.2
		C179.6,4.7,179.5,4.4,179.2,4.3L179.2,4.3z"/>
</g>
<g id="Layer_42">
	<path d="M172.5,2c-1-0.2-2-0.4-3-0.5c-0.3,0-0.5,0.2-0.6,0.4s0.2,0.5,0.4,0.6c1,0.1,1.9,0.3,2.9,0.5c0.3,0.1,0.5-0.1,0.6-0.4
		C173,2.3,172.8,2,172.5,2L172.5,2z"/>
</g>
<g id="Layer_41">
	<path d="M165.5,1.3c-1,0-2,0.1-3,0.3c-0.3,0-0.5,0.3-0.4,0.6c0,0.3,0.3,0.5,0.6,0.4c1-0.1,1.9-0.2,2.9-0.3c0.3,0,0.5-0.2,0.5-0.5
		C166,1.5,165.7,1.3,165.5,1.3z"/>
</g>
<g id="Layer_40">
	<path d="M197.6,25c-0.4-0.9-0.8-1.9-1.2-2.8c-0.1-0.2-0.4-0.4-0.7-0.2c-0.2,0.1-0.4,0.4-0.2,0.7c0.4,0.9,0.8,1.8,1.2,2.7
		c0.1,0.3,0.4,0.4,0.7,0.3C197.6,25.6,197.7,25.3,197.6,25L197.6,25z"/>
</g>
<g id="Layer_39">
	<path d="M199.9,31.7c-0.3-1-0.6-1.9-0.9-2.9c-0.1-0.3-0.4-0.4-0.6-0.3c-0.3,0.1-0.4,0.4-0.3,0.6c0.3,0.9,0.6,1.9,0.9,2.8
		c0.1,0.3,0.4,0.4,0.6,0.3C199.9,32.2,200,32,199.9,31.7z"/>
</g>
<g id="Layer_38">
	<path d="M202.2,45.6c0-1-0.1-2-0.2-3c0-0.3-0.3-0.5-0.5-0.4c-0.3,0-0.5,0.3-0.4,0.5c0.1,1,0.2,2,0.2,3c0,0.3,0.2,0.5,0.5,0.5
		C202,46.1,202.2,45.9,202.2,45.6L202.2,45.6z"/>
	<path d="M201.5,38.6c-0.2-1-0.3-2-0.6-3c-0.1-0.3-0.3-0.4-0.6-0.4c-0.3,0.1-0.4,0.3-0.4,0.6c0.2,1,0.4,1.9,0.5,2.9
		c0,0.3,0.3,0.5,0.6,0.4C201.3,39.1,201.5,38.8,201.5,38.6L201.5,38.6z"/>
</g>
<g id="Layer_37">
	<path d="M202.1,52.7c0.1-1,0.1-2,0.1-3c0-0.3-0.2-0.5-0.5-0.5s-0.5,0.2-0.5,0.5c0,1-0.1,2-0.1,3c0,0.3,0.2,0.5,0.5,0.5
		C201.8,53.1,202.1,52.9,202.1,52.7L202.1,52.7z"/>
</g>
<g id="Layer_36">
	<path d="M201.1,59.6c0.2-1,0.4-2,0.5-3c0-0.3-0.1-0.5-0.4-0.6c-0.3,0-0.5,0.1-0.6,0.4c-0.1,1-0.3,2-0.5,2.9
		c-0.1,0.3,0.1,0.5,0.4,0.6C200.8,60.1,201,59.9,201.1,59.6L201.1,59.6z"/>
</g>
<g id="Layer_35">
	<path d="M199.1,66.4c0.4-0.9,0.7-1.9,1-2.9c0.1-0.3-0.1-0.5-0.3-0.6c-0.3-0.1-0.5,0.1-0.6,0.3c-0.3,0.9-0.6,1.9-1,2.8
		c-0.1,0.3,0,0.5,0.3,0.6C198.7,66.8,199,66.7,199.1,66.4z"/>
</g>
<g id="Layer_34">
	<path d="M196,72.8c0.5-0.9,1-1.8,1.4-2.7c0.1-0.2,0-0.5-0.2-0.7c-0.2-0.1-0.5,0-0.7,0.2c-0.4,0.9-0.9,1.8-1.4,2.6
		c-0.1,0.2-0.1,0.5,0.2,0.7S195.9,73,196,72.8z"/>
</g>
<g id="Layer_33">
	<path d="M191.9,78.6c0.7-0.8,1.3-1.6,1.9-2.4c0.2-0.2,0.1-0.5-0.1-0.7c-0.2-0.2-0.5-0.1-0.7,0.1c-0.6,0.8-1.2,1.6-1.8,2.3
		c-0.2,0.2-0.2,0.5,0.1,0.7C191.4,78.8,191.7,78.8,191.9,78.6L191.9,78.6z"/>
</g>
<g id="Layer_32">
	<path d="M186.8,83.5c0.8-0.6,1.6-1.3,2.3-2c0.2-0.2,0.2-0.5,0-0.7s-0.5-0.2-0.7,0c-0.7,0.7-1.5,1.3-2.2,1.9
		c-0.2,0.2-0.3,0.5-0.1,0.7S186.6,83.6,186.8,83.5L186.8,83.5z"/>
</g>
<g id="Layer_31">
	<path d="M180.9,87.4c0.9-0.5,1.8-1,2.6-1.5c0.2-0.1,0.3-0.5,0.1-0.7c-0.1-0.2-0.5-0.3-0.7-0.1c-0.8,0.5-1.7,1-2.5,1.5
		c-0.2,0.1-0.3,0.4-0.2,0.7C180.4,87.4,180.7,87.5,180.9,87.4L180.9,87.4z"/>
</g>
<g id="Layer_30">
	<path d="M174.5,90.3c1-0.3,1.9-0.7,2.8-1.1c0.3-0.1,0.4-0.4,0.3-0.7c-0.1-0.3-0.4-0.4-0.7-0.3c-0.9,0.4-1.8,0.8-2.8,1.1
		c-0.3,0.1-0.4,0.4-0.3,0.6C173.9,90.2,174.2,90.3,174.5,90.3z"/>
</g>
<g id="Layer_29">
	<path d="M167.7,92.2c1-0.2,2-0.5,2.9-0.7c0.3-0.1,0.4-0.3,0.3-0.6s-0.3-0.4-0.6-0.3c-0.9,0.3-1.9,0.5-2.9,0.7
		c-0.3,0.1-0.4,0.3-0.4,0.6C167.2,92.1,167.4,92.3,167.7,92.2z"/>
</g>
<g id="Layer_28">
	<path d="M160.7,93.3c0.4,0,0.8-0.1,1.1-0.1c0.6-0.1,1.3-0.2,1.9-0.3c0.3,0,0.5-0.3,0.4-0.6c0-0.3-0.3-0.5-0.6-0.4
		c-0.6,0.1-1.2,0.2-1.8,0.3c-0.4,0-0.7,0.1-1.1,0.1c-0.3,0-0.5,0.3-0.5,0.5C160.2,93.1,160.5,93.3,160.7,93.3L160.7,93.3z"/>
</g>
<g id="Layer_27">
	<path d="M153.7,93.4c1,0.1,2,0.1,3,0.1c0.3,0,0.5-0.2,0.5-0.5s-0.2-0.5-0.5-0.5c-1,0-2,0-3-0.1c-0.3,0-0.5,0.2-0.5,0.5
		C153.2,93.1,153.4,93.4,153.7,93.4z"/>
</g>
<g id="Layer_26">
	<path d="M146.7,92.4c1,0.2,2,0.4,3,0.5c0.3,0,0.5-0.1,0.6-0.4c0-0.3-0.1-0.5-0.4-0.6c-1-0.2-1.9-0.3-2.9-0.5
		c-0.3-0.1-0.5,0.1-0.6,0.4C146.2,92,146.4,92.3,146.7,92.4z"/>
</g>
<g id="Layer_25">
	<path d="M139.9,90.6c1,0.3,1.9,0.6,2.9,0.9c0.3,0.1,0.5-0.1,0.6-0.3c0.1-0.3-0.1-0.5-0.3-0.6c-0.9-0.3-1.9-0.5-2.9-0.8
		c-0.3-0.1-0.5,0.1-0.6,0.3C139.5,90.2,139.6,90.5,139.9,90.6L139.9,90.6z"/>
</g>
<g id="Layer_24">
	<path d="M133.2,88.2c0.9,0.4,1.9,0.7,2.8,1.1c0.3,0.1,0.5,0,0.6-0.3s0-0.5-0.3-0.6c-0.9-0.3-1.9-0.7-2.8-1.1
		c-0.3-0.1-0.5,0-0.6,0.3C132.9,87.8,133,88.1,133.2,88.2z"/>
</g>
<g id="Layer_23">
	<path d="M126.8,85.4c0.9,0.4,1.8,0.8,2.8,1.2c0.3,0.1,0.5,0,0.7-0.3c0.1-0.3,0-0.5-0.3-0.7c-0.9-0.4-1.8-0.8-2.7-1.2
		c-0.3-0.1-0.5,0-0.7,0.2C126.4,85,126.5,85.3,126.8,85.4L126.8,85.4z"/>
</g>
<g id="Layer_22">
	<path d="M120.4,82.4c0.9,0.4,1.8,0.9,2.7,1.3c0.2,0.1,0.5,0,0.7-0.2c0.1-0.2,0-0.5-0.2-0.7c-0.9-0.4-1.8-0.9-2.7-1.3
		c-0.2-0.1-0.5,0-0.7,0.2C120.1,82,120.2,82.3,120.4,82.4L120.4,82.4z"/>
</g>
<g id="Layer_21">
	<path d="M114.2,79.3c0.9,0.5,1.8,0.9,2.7,1.3c0.2,0.1,0.5,0,0.7-0.2c0.1-0.2,0-0.5-0.2-0.7c-0.9-0.4-1.8-0.9-2.7-1.3
		c-0.2-0.1-0.5,0-0.7,0.2C113.8,78.9,113.9,79.2,114.2,79.3L114.2,79.3z"/>
</g>
<g id="Layer_20">
	<path d="M107.9,76.1c0.9,0.4,1.8,0.9,2.7,1.4c0.2,0.1,0.5,0,0.7-0.2c0.1-0.2,0-0.5-0.2-0.7c-0.9-0.5-1.8-0.9-2.7-1.4
		c-0.2-0.1-0.5,0-0.7,0.2C107.6,75.7,107.7,76,107.9,76.1L107.9,76.1z"/>
</g>
<g id="Layer_19">
	<path d="M101.6,73c0.9,0.4,1.8,0.9,2.7,1.3c0.2,0.1,0.5,0,0.7-0.2c0.1-0.2,0-0.5-0.2-0.7c-0.9-0.4-1.8-0.9-2.7-1.3
		c-0.2-0.1-0.5,0-0.7,0.2C101.3,72.6,101.4,72.9,101.6,73L101.6,73z"/>
</g>
<g id="Layer_18">
	<path d="M95.3,70.1c0.9,0.4,1.8,0.8,2.7,1.2c0.3,0.1,0.5,0,0.7-0.2c0.1-0.3,0-0.5-0.2-0.7c-0.9-0.4-1.8-0.8-2.7-1.2
		c-0.3-0.1-0.5,0-0.7,0.3C94.9,69.7,95,70,95.3,70.1L95.3,70.1z"/>
</g>
<g id="Layer_17">
	<path d="M88.9,67.4c0.9,0.4,1.8,0.7,2.8,1.1c0.3,0.1,0.5,0,0.7-0.3c0.1-0.3,0-0.5-0.3-0.7c-0.9-0.4-1.9-0.8-2.8-1.1
		c-0.3-0.1-0.5,0-0.6,0.3C88.5,67,88.6,67.3,88.9,67.4L88.9,67.4z"/>
</g>
<g id="Layer_16">
	<path d="M82.3,65c0.9,0.3,1.9,0.6,2.8,1c0.3,0.1,0.5,0,0.6-0.3s0-0.5-0.3-0.6c-0.9-0.3-1.9-0.7-2.9-1c-0.3-0.1-0.5,0.1-0.6,0.3
		C81.9,64.7,82.1,64.9,82.3,65z"/>
</g>
<g id="Layer_15">
	<path d="M75.6,63.1c1,0.2,1.9,0.5,2.9,0.8c0.3,0.1,0.5-0.1,0.6-0.3c0.1-0.3-0.1-0.5-0.3-0.6c-1-0.3-1.9-0.5-2.9-0.8
		c-0.3-0.1-0.5,0.1-0.6,0.4C75.2,62.8,75.4,63.1,75.6,63.1L75.6,63.1z"/>
</g>
<g id="Layer_14">
	<path d="M68.8,61.8c1,0.1,2,0.3,2.9,0.5c0.3,0.1,0.5-0.1,0.6-0.4s-0.1-0.5-0.4-0.6c-1-0.2-2-0.3-3-0.5c-0.3,0-0.5,0.2-0.6,0.4
		C68.4,61.5,68.6,61.8,68.8,61.8z"/>
</g>
<g id="Layer_13">
	<path d="M61.9,61.2c1,0,2,0.1,3,0.1c0.3,0,0.5-0.2,0.5-0.5s-0.2-0.5-0.5-0.5c-1-0.1-2-0.1-3-0.1c-0.3,0-0.5,0.2-0.5,0.5
		S61.6,61.2,61.9,61.2L61.9,61.2z"/>
</g>
<g id="Layer_12">
	<path d="M55,61.5c1-0.1,2-0.2,3-0.2c0.3,0,0.5-0.2,0.5-0.5s-0.2-0.5-0.5-0.5c-1,0.1-2,0.1-3,0.2c-0.3,0-0.5,0.3-0.4,0.6
		C54.5,61.4,54.7,61.6,55,61.5L55,61.5z"/>
</g>
<g id="Layer_11">
	<path d="M48.2,62.7c1-0.2,1.9-0.5,2.9-0.6c0.3-0.1,0.5-0.3,0.4-0.6c-0.1-0.3-0.3-0.5-0.6-0.4c-1,0.2-2,0.4-3,0.6
		c-0.3,0.1-0.4,0.3-0.4,0.6C47.6,62.6,47.9,62.8,48.2,62.7L48.2,62.7z"/>
</g>
<g id="Layer_10">
	<path d="M41.6,64.9c0.9-0.4,1.9-0.7,2.8-1c0.3-0.1,0.4-0.4,0.3-0.6c-0.1-0.3-0.4-0.4-0.6-0.3c-0.9,0.3-1.9,0.7-2.8,1
		c-0.3,0.1-0.4,0.4-0.3,0.6C41,64.8,41.3,65,41.6,64.9L41.6,64.9z"/>
</g>
<g id="Layer_9">
	<path d="M35.3,67.8c0.9-0.5,1.8-0.9,2.6-1.4c0.2-0.1,0.4-0.4,0.2-0.7c-0.1-0.2-0.4-0.4-0.7-0.2c-0.9,0.4-1.8,0.9-2.7,1.4
		c-0.2,0.1-0.3,0.4-0.2,0.7C34.8,67.8,35.1,67.9,35.3,67.8L35.3,67.8z"/>
</g>
<g id="Layer_8">
	<path d="M29.4,71.4c0.8-0.6,1.7-1.1,2.5-1.6c0.2-0.1,0.3-0.5,0.2-0.7s-0.5-0.3-0.7-0.2c-0.8,0.5-1.7,1.1-2.5,1.7
		c-0.2,0.2-0.3,0.5-0.1,0.7C28.8,71.5,29.2,71.6,29.4,71.4L29.4,71.4z"/>
</g>
<g id="Layer_7">
	<path d="M23.8,75.6c0.8-0.6,1.6-1.3,2.3-1.9c0.2-0.2,0.3-0.5,0.1-0.7s-0.5-0.3-0.7-0.1c-0.8,0.6-1.6,1.2-2.4,1.9
		c-0.2,0.2-0.2,0.5-0.1,0.7C23.3,75.8,23.6,75.8,23.8,75.6L23.8,75.6z"/>
</g>
<g id="Layer_6">
	<path d="M18.7,80.3c0.7-0.7,1.5-1.4,2.2-2c0.2-0.2,0.2-0.5,0-0.7s-0.5-0.2-0.7,0c-0.7,0.7-1.5,1.4-2.2,2.1c-0.2,0.2-0.2,0.5,0,0.7
		S18.5,80.5,18.7,80.3L18.7,80.3z"/>
</g>
<g id="Layer_5">
	<path d="M13.8,85.3c0.7-0.7,1.4-1.5,2-2.2c0.2-0.2,0.2-0.5,0-0.7s-0.5-0.2-0.7,0c-0.7,0.7-1.4,1.4-2.1,2.2c-0.2,0.2-0.2,0.5,0,0.7
		C13.3,85.5,13.6,85.5,13.8,85.3L13.8,85.3z"/>
</g>
<g id="Layer_4">
	<path d="M9.3,90.6c0.6-0.8,1.3-1.5,1.9-2.3c0.2-0.2,0.2-0.5-0.1-0.7c-0.2-0.2-0.5-0.2-0.7,0.1c-0.6,0.8-1.3,1.5-1.9,2.3
		c-0.2,0.2-0.1,0.5,0.1,0.7C8.8,90.8,9.1,90.8,9.3,90.6L9.3,90.6z"/>
</g>
<g id="Layer_3_1_">
	<g id="Layer_3">
		<path d="M248.3,21.8l1.6-1.6l-1-3.2l0.9-0.9c0.4-0.4,0.4-1,0-1.3l0,0c-0.4-0.4-1-0.4-1.3,0l-0.2,0.2l-0.8-2.5l0.8-0.8
			c0.4-0.4,0.4-1,0-1.3l0,0c-0.4-0.4-1-0.4-1.3,0l-0.1,0.1l-1.1-3.4l1.5-1.6c5.6-5.2,2.9-8-2.4-2.4l-1.5,1.6L240,3.6l0.1-0.1
			c0.4-0.4,0.4-1,0-1.3l0,0c-0.4-0.4-1-0.4-1.3,0L238,3l-2.5-0.8l0.2-0.2c0.4-0.4,0.4-1,0-1.3l0,0c-0.4-0.4-1-0.4-1.3,0l-0.9,0.9
			l-3.2-1l-1.6,1.6l9.9,5.4c0.6,0.3,0.7,1.1,0.3,1.6l-4.8,5.6l-4.1-1.3l-0.6,0.6l2.8,1.9c0.4,0.3,0.6,0.9,0.3,1.3
			c-0.3,0.4-0.4,0.7-0.2,0.9c0.2,0.2,0.6,0,0.9-0.2c0.4-0.3,1-0.2,1.3,0.3l1.9,2.8l0.6-0.6l-1.3-4.1l5.6-4.8
			c0.5-0.4,1.3-0.3,1.6,0.3L248.3,21.8z"/>
	</g>
</g>
<g id="Layer_2">
	<g>
		<path d="M5.6,70.3c-3.1,0-5.6,2.5-5.6,5.6C0,81.4,5.6,88,5.6,88s5.6-6.6,5.6-12.1C11.3,72.8,8.8,70.3,5.6,70.3z M5.6,79.1
			c-1.8,0-3.3-1.5-3.3-3.3s1.5-3.3,3.3-3.3s3.3,1.5,3.3,3.3S7.4,79.1,5.6,79.1z"/>
		<path d="M3.2,92.7c0-1.3,1.1-2.4,2.4-2.4S8,91.4,8,92.7s-1.1,2.4-2.4,2.4C4.3,95.1,3.2,94,3.2,92.7z"/>
	</g>
</g>
</svg>
