<?xml version="1.0" encoding="utf-8"?>
<!-- Generator: Adobe Illustrator 24.0.0, SVG Export Plug-In . SVG Version: 6.00 Build 0)  -->
<svg version="1.1" id="Layer_1" focusable="false" xmlns="http://www.w3.org/2000/svg" xmlns:xlink="http://www.w3.org/1999/xlink"
	 x="0px" y="0px" viewBox="0 0 576 402" style="enable-background:new 0 0 576 402;" xml:space="preserve">
<style type="text/css">
	.st0{fill:#3C2A66;}
</style>
<path class="st0" d="M549.7,69.1c-6.3-23.7-24.8-42.3-48.3-48.6C458.8,9,288,9,288,9S117.2,9,74.6,20.5c-23.5,6.3-42,24.9-48.3,48.6
	c-11.4,42.9-11.4,132.3-11.4,132.3s0,89.4,11.4,132.3c6.3,23.6,24.8,41.5,48.3,47.8C117.2,393,288,393,288,393s170.8,0,213.4-11.5
	c23.5-6.3,42-24.2,48.3-47.8c11.4-42.9,11.4-132.3,11.4-132.3S561.1,111.9,549.7,69.1z M232.1,282.6V120.2l142.7,81.2L232.1,282.6
	L232.1,282.6z"/>
</svg>
